<?xml version="1.0" encoding="UTF-8"?><svg id="a" xmlns="http://www.w3.org/2000/svg" viewBox="0 0 510 112"><defs><style>.b{fill:#fff;}</style></defs><path class="b" d="M394.9,5.7v15.4h19.2V5.7h-19.2Zm0,20.7V105.7h19.2V26.4h-19.2Zm-1.3-.7"/><path class="b" d="M377.2,26.5c-3.7,0-7.1,.5-10.3,1.3-5,1.4-9.2,3.6-12.7,6.7-3.5,3.1-6.2,6.9-8.1,11.4-1.8,4.5-2.7,9.5-2.7,15v44.6h19.8V61c0-5.5,1.9-9.7,5.7-12.6,3.9-3,9-3.9,15.3-2.9V26.9c-2.4-.3-4.7-.4-6.9-.4h0Zm0,0"/><g><path class="b" d="M502.8,26.6h-24.5l-55.3,78.9h24.4l55.4-78.9Z"/><path class="b" d="M478.4,105.5h24.4l-55.3-78.9h-24.5l55.4,78.9Z"/></g><path class="b" d="M171.8,6.3V73c0,5.3,.8,10.1,2.2,14.4,1.5,4.2,3.7,7.7,6.6,10.6,2.9,2.9,6.5,5,10.8,6.3,4.3,1.3,9.3,1.6,15,1v-17.9c-5,.3-8.7-.7-11.2-2.9-2.4-2.2-3.6-6-3.6-11.4v-28.9h14.8V26.5h-14.8V6.3h-19.8Zm0,4.5"/><path class="b" d="M43,26.4c-5.3,0-10.1,.9-14.4,2.7-4.2,1.7-7.8,4.1-10.9,7.2-3,3.1-5.4,6.8-7,10.9-1.6,4.2-2.4,8.7-2.4,13.6v44.6H28V60.4c0-4.4,1.4-7.9,4.2-10.6,2.8-2.7,6.4-4.1,10.8-4.1s5.9,.6,7.8,1.7c1.9,1.1,3.3,2.5,4.3,4.1,1,1.6,1.7,3.3,2,5,.3,1.6,.5,2.9,.5,4v45.1h19.8V60.9c0-5.1-.8-9.8-2.4-13.9-1.5-4.2-3.7-7.8-6.7-10.8-2.9-3.1-6.5-5.5-10.8-7.2-4.2-1.7-9-2.6-14.4-2.6h0Zm0,0"/><path class="b" d="M125.5,26.3c-5.4,0-10.4,1.1-15.1,3.3-4.7,2-8.8,4.9-12.3,8.5-3.5,3.5-6.3,7.8-8.4,12.7-1.9,4.8-2.9,9.9-2.9,15.4s1,10.6,2.9,15.4c2.1,4.8,4.9,9.1,8.4,12.7,3.5,3.5,7.6,6.3,12.3,8.4,4.7,2.1,9.7,3,15.1,3,9.5,0,17.4-2.3,23.7-7,6.4-4.8,10.7-11.1,12.9-18.8h-20.7c-1.7,3-4,5.3-6.9,6.8-2.9,1.4-6,2.1-9.1,2.1s-6.4-.7-9.1-2.1c-2.7-1.5-5.1-3.5-7-6l53.4-22.4c-.9-5.1-2.5-9.6-4.8-13.5-2.3-3.9-5-7.2-8.4-9.8-3.2-2.7-7-4.8-11.1-6.2-4.1-1.5-8.4-2.3-12.9-2.3h0Zm-.1,17.1c3.1,0,6,.6,8.5,1.7,2.6,1.2,4.7,2.8,6.5,5l-35.5,15c0-3.2,.7-6.2,1.8-8.8,1.2-2.6,2.6-4.9,4.4-6.8,1.9-1.9,4-3.4,6.4-4.5,2.5-1.1,5.1-1.6,8-1.6h0Zm0,0"/><path class="b" d="M215.7,26.5v44.5c0,5.1,.7,9.7,2.2,14,1.6,4.2,3.9,7.9,6.8,11,3,3,6.6,5.3,10.8,7,4.2,1.7,9,2.5,14.4,2.5s9.7-1,13.9-2.8c4.2-2,7.7-4.7,10.6-8,2.9,3.4,6.4,6,10.5,8,4.2,1.9,8.9,2.8,14.2,2.8s9.9-.8,14.2-2.5c4.3-1.8,7.9-4.2,10.9-7.3,3.1-3.1,5.5-6.8,7-11,1.7-4.3,2.6-8.9,2.6-13.8V26.5h-19.8v45.1c0,4.4-1.4,7.9-4.2,10.6-2.8,2.7-6.4,4-10.8,4s-5.9-.5-7.8-1.6c-1.9-1.1-3.3-2.4-4.3-4-1-1.6-1.7-3.2-2-4.8-.3-1.7-.4-3.1-.4-4.2V26.5h-19.8v45.1c0,4.4-1.4,7.9-4.2,10.6-2.7,2.7-6.3,4-10.7,4s-5.7-.5-7.6-1.6c-1.9-1.1-3.4-2.4-4.4-4-1-1.6-1.7-3.2-2-4.8-.3-1.7-.4-3.1-.4-4.2V26.5h-19.8Zm0,0"/></svg>