<?xml version="1.0" encoding="utf-8"?>
<!-- Generator: Adobe Illustrator 28.2.0, SVG Export Plug-In . SVG Version: 6.00 Build 0)  -->
<svg version="1.1" id="Layer_1" xmlns="http://www.w3.org/2000/svg" xmlns:xlink="http://www.w3.org/1999/xlink" x="0px" y="0px"
	 viewBox="0 0 2073.9 419.4" style="enable-background:new 0 0 2073.9 419.4;" xml:space="preserve">
<style type="text/css">
	.st0{fill:#D9272E;}
</style>
<path class="st0" d="M1621.6,0v64.5h80.6V0H1621.6z M1621.6,86.6v332.7h80.6V86.6H1621.6z M1616.4,83.8"/>
<path class="st0" d="M1547.3,87.2c-15.5,0-29.9,1.9-43.2,5.5c-20.9,5.9-38.6,15.2-53.3,28.2c-14.7,13-26,28.9-33.9,47.7
	c-7.5,18.9-11.4,39.9-11.4,62.9v187h82.9v-187c0-23.1,8-40.6,23.9-52.8c16.4-12.6,37.8-16.6,64.1-12V89
	C1566.3,87.8,1556.6,87.2,1547.3,87.2L1547.3,87.2z M1547.3,87.2"/>
<g>
	<path class="st0" d="M2073.9,87.6h-102.9l-231.9,330.7h102.4L2073.9,87.6z"/>
	<path class="st0" d="M1971.5,418.3h102.4L1842,87.6h-102.9L1971.5,418.3z"/>
</g>
<path class="st0" d="M685.8,2.3V282c0,22.2,3.2,42.3,9.4,60.3c6.3,17.6,15.6,32.4,27.8,44.5c12.2,12.2,27.2,20.9,45.2,26.4
	c18,5.4,39,6.9,62.8,4.3v-75.2c-20.9,1.2-36.6-2.8-47.1-12c-10.1-9.2-15.1-25.1-15.1-47.7v-121l62.2,0V87.3h-62.2v-85H685.8z
	 M685.8,21.1"/>
<path class="st0" d="M145.7,86.9c-22.2,0-42.3,3.9-60.3,11.4c-17.6,7.2-32.8,17.2-45.7,30.2c-12.6,13-22.5,28.3-29.6,45.9
	C3.3,192,0,211,0,231.5v187.1h83V229.5c0-18.4,5.8-33.2,17.6-44.5c11.7-11.4,26.7-17,45.2-17c13.8,0,24.8,2.4,32.7,7
	c7.9,4.6,14,10.3,18.1,17c4.2,6.7,7,13.7,8.2,20.8c1.2,6.7,2,12.2,2,16.8v189.1h82.9V231.5c0-21.4-3.5-40.9-10.2-58.5
	c-6.3-17.6-15.6-32.6-28.2-45.1c-12.1-13-27.4-23-45.3-30.2C188.4,90.6,168.2,86.9,145.7,86.9L145.7,86.9z M145.7,86.9"/>
<path class="st0" d="M491.9,86.2c-22.6,0-43.5,4.7-63.2,13.7c-19.7,8.6-37,20.4-51.8,35.5c-14.8,14.8-26.5,32.7-35.1,53.2
	c-8.2,20.1-12.2,41.5-12.2,64.5c0,23,4.1,44.3,12.2,64.5c8.6,20.2,20.4,38,35.1,53.2c14.8,14.8,32,26.5,51.8,35.1
	c19.7,8.6,40.6,12.8,63.2,12.8c39.8,0,73.1-9.7,99.3-29.5c26.7-20.1,44.8-46.5,54.2-79h-86.7c-7,12.8-16.6,22.3-29,28.5
	c-12.3,5.8-25,8.6-38.3,8.6c-14,0-26.7-2.8-38.3-8.6c-11.5-6.2-21.2-14.6-29.4-25.3l224.1-94.1c-3.7-21.4-10.5-40.3-20.3-56.7
	c-9.5-16.4-21.1-30.1-35.1-41.2c-13.6-11.5-29.1-20-46.4-25.8C528.9,89.6,510.8,86.2,491.9,86.2L491.9,86.2z M491.4,157.8
	c13.2,0,25.2,2.4,35.8,7.3c10.7,5,19.6,11.9,27.1,20.9l-148.9,63c0.4-13.6,2.8-26,7.3-37c4.9-11.1,11-20.6,18.4-28.5
	c7.8-8.2,16.7-14.3,27-18.8C468.4,160.1,479.6,157.8,491.4,157.8L491.4,157.8z M491.4,157.8"/>
<path class="st0" d="M869.9,87.1v186.7c0,21.3,3,40.9,9.4,58.9c6.7,17.6,16.3,32.9,28.3,45.9c12.6,12.6,27.6,22.4,45.2,29.6
	c17.6,7.1,37.6,10.5,60.3,10.5c21.3,0,40.8-4,58.4-11.9c17.6-8.4,32.4-19.5,44.5-33.7c12.2,14.2,26.8,25.3,44,33.7
	c17.6,7.9,37.5,11.9,59.7,11.9c21.8,0,41.7-3.4,59.7-10.5c18-7.6,33.2-17.8,45.7-30.7c13-13,22.9-28.3,29.6-45.9
	c7.1-18,10.8-37.2,10.8-57.7V87.1h-83.1v189.1c0,18.4-5.8,33.2-17.6,44.5c-11.7,11.3-26.7,16.9-45.1,16.9c-13.8,0-24.8-2.2-32.7-6.8
	c-8-4.6-14-10.2-18.1-17c-4.2-6.7-7-13.5-8.3-20.2c-1.2-7.1-1.8-12.9-1.8-17.6V87.1H1076v189.1c0,18.4-6.1,33.2-17.8,44.5
	c-11.3,11.3-26.3,16.9-45,16.9c-13.5,0-24-2.2-32-6.8c-8-4.6-14.2-10.2-18.4-17c-4.2-6.7-7-13.5-8.3-20.2
	c-1.2-7.1-1.7-12.9-1.7-17.6V87.1H869.9z M869.9,87.1"/>
</svg>
